<svg xmlns="http://www.w3.org/2000/svg" width="20" height="11" viewBox="0 0 20 11" fill="none">
  <path d="M19.8678 4.70428L15.3225 0.158889C15.1592 -0.0317713 14.8722 -0.0539973 14.6816 0.10932C14.4909 0.272598 14.4687 0.559546 14.632 0.750207C14.6472 0.76798 14.6638 0.784581 14.6816 0.799776L18.4497 4.57244H0.454523C0.203512 4.57244 0 4.77596 0 5.02701C0 5.27806 0.203512 5.48153 0.454523 5.48153H18.4497L14.6816 9.24963C14.4909 9.4129 14.4687 9.69985 14.632 9.89051C14.7953 10.0812 15.0822 10.1034 15.2729 9.94008C15.2907 9.92485 15.3073 9.90829 15.3225 9.89051L19.8678 5.34513C20.0441 5.1679 20.0441 4.88158 19.8678 4.70428Z" fill="white"/>
</svg>