<svg xmlns="http://www.w3.org/2000/svg" width="22" height="16" viewBox="0 0 22 16" fill="none">
  <path d="M12 16H1.33333C0.533333 16 0 15.4667 0 14.6667C0 13.8667 0.533333 13.3334 1.33333 13.3334H12C12.8 13.3334 13.3333 13.8667 13.3333 14.6667C13.3333 15.4667 12.8 16 12 16Z" fill="white"/>
  <path d="M20 9.33329H1.33333C0.533333 9.33329 0 8.79996 0 7.99996C0 7.19996 0.533333 6.66663 1.33333 6.66663H20C20.8 6.66663 21.3333 7.19996 21.3333 7.99996C21.3333 8.79996 20.8 9.33329 20 9.33329Z" fill="white"/>
  <path d="M20 2.66667H9.33333C8.53333 2.66667 8 2.13333 8 1.33333C8 0.533333 8.53333 0 9.33333 0H20C20.8 0 21.3333 0.533333 21.3333 1.33333C21.3333 2.13333 20.8 2.66667 20 2.66667Z" fill="white"/>
</svg>